<svg xmlns="http://www.w3.org/2000/svg" viewBox="0 0 533 817"><defs><style>.cls-1{fill:#454262;}.cls-2{fill:#e0e0e0;}.cls-3{fill:#d71a62;}.cls-4{fill:#ffbf4d;}.cls-5{fill:#fff;}</style></defs><g id="Layer_2" data-name="Layer 2"><g id="OBJECTS"><path class="cls-1" d="M63,3H57V442h6Z"/><path class="cls-1" d="M494,0h-6V506h6Z"/><path class="cls-2" d="M499.77,460.09,50,439a34.81,34.81,0,0,0-36.43,33.14L0,759.51A34.8,34.8,0,0,0,33.22,795.9L483,817a34.81,34.81,0,0,0,36.44-33.14L533,496.49a34.79,34.79,0,0,0-9.05-25.07,34.78,34.78,0,0,0-24.14-11.33Z"/><path class="cls-3" d="M531.62,525,533,496.54a34.85,34.85,0,0,0-33.19-36.43L49.79,439a34.84,34.84,0,0,0-36.45,33.17L12,500.67Z"/><path class="cls-1" d="M95.09,658.14l50-103.72a18.44,18.44,0,0,1,35.05,8.78l-4.8,101.73h.51a12.87,12.87,0,0,1,4.84,1.2,12.71,12.71,0,0,1,6.58,7.18,12.75,12.75,0,0,1-7.67,16.34,12.8,12.8,0,0,1-4.95.75h-.51l-.87,18.53a13.55,13.55,0,0,1-1.29,5.19A13.79,13.79,0,0,1,158.82,722a14,14,0,0,1-5.25-1.28,13.82,13.82,0,0,1-4.34-3.2,13.7,13.7,0,0,1-3.57-9.92l.88-18.53-41.35-1.94A12.84,12.84,0,0,1,96.33,683,12.69,12.69,0,0,1,93,673.8l.44-9.34A16.3,16.3,0,0,1,95.09,658.14ZM147.82,662l3-63.11a.44.44,0,0,0-.08-.25.44.44,0,0,0-.23-.15.42.42,0,0,0-.27,0,.39.39,0,0,0-.19.19l-29.52,61.37a1.65,1.65,0,0,0,0,1.59,1.72,1.72,0,0,0,.59.58,1.6,1.6,0,0,0,.8.22l24.11,1.13a1.66,1.66,0,0,0,1.23-.43,1.69,1.69,0,0,0,.39-.53A1.57,1.57,0,0,0,147.82,662Z"/><path class="cls-1" d="M347,670.15l49.48-103.74a18.24,18.24,0,0,1,33.64,1.71,18.56,18.56,0,0,1,1.06,7.08L426.46,677h.5a12.69,12.69,0,0,1,12,13.31,12.64,12.64,0,0,1-4.12,8.81,12.64,12.64,0,0,1-9.11,3.29h-.49l-.87,18.54A13.69,13.69,0,0,1,410.1,734a13.58,13.58,0,0,1-9.46-4.46,13.77,13.77,0,0,1-3.55-9.89L398,701.1l-40.88-1.93A12.64,12.64,0,0,1,348.3,695a12.8,12.8,0,0,1-3.29-9.16l.44-9.34A16.38,16.38,0,0,1,347,670.15ZM399.24,674l2.95-63.08a.38.38,0,0,0-.08-.26.34.34,0,0,0-.22-.15.36.36,0,0,0-.27,0,.44.44,0,0,0-.19.19L372.2,672.11a1.75,1.75,0,0,0-.18.81,1.68,1.68,0,0,0,.23.79,1.61,1.61,0,0,0,.58.58,1.63,1.63,0,0,0,.8.22l23.86,1.13a1.82,1.82,0,0,0,.66-.09,1.6,1.6,0,0,0,.57-.35,1.56,1.56,0,0,0,.52-1.19Z"/><path class="cls-3" d="M228.4,590.79c1.33-28.44,17-44,44.34-42.72s41.5,18.24,40.18,46.67l-4.32,92.47c-1.33,28.43-17,44-44.35,42.72s-41.49-18.24-40.16-46.67Zm23.44,95.5c-.6,12.69,4.74,17.77,13.6,18.19s14.64-4.11,15.24-16.84l4.48-96c.6-12.69-4.75-17.78-13.61-18.19s-14.64,4.11-15.23,16.84Z"/><path class="cls-3" d="M225.33,785.1,226.66,759l16.4.84-.18,3.4-12.44-.64-.41,8,11.59.59-.17,3.38-11.59-.59-.41,8,12.6.64-.17,3.4Z"/><path class="cls-3" d="M246.69,786.19l1-19.61,3.69.19-.16,3.11h.2a4.84,4.84,0,0,1,2-2.39,5.38,5.38,0,0,1,3.14-.76c.24,0,.52,0,.84.07s.59.07.77.1l-.18,3.65a6.73,6.73,0,0,0-.81-.18,7.8,7.8,0,0,0-1.17-.15,5,5,0,0,0-2.44.45,4.27,4.27,0,0,0-1.74,1.49,4.15,4.15,0,0,0-.73,2.24l-.61,12Z"/><path class="cls-3" d="M260.49,786.89l1-19.61,3.69.19-.16,3.12h.2a4.72,4.72,0,0,1,2-2.4,5.54,5.54,0,0,1,3.14-.76l.84.07.77.1-.18,3.66c-.16,0-.42-.11-.81-.19a9.36,9.36,0,0,0-1.17-.15,5,5,0,0,0-2.45.46,4.37,4.37,0,0,0-1.74,1.48,4.26,4.26,0,0,0-.72,2.24l-.62,12Z"/><path class="cls-3" d="M281.82,788.38a9,9,0,0,1-4.75-1.51,8.53,8.53,0,0,1-3-3.7,11.65,11.65,0,0,1-.86-5.37,11.79,11.79,0,0,1,1.41-5.28,8.5,8.5,0,0,1,3.37-3.38,8.89,8.89,0,0,1,4.88-1,9,9,0,0,1,4.75,1.51,8.56,8.56,0,0,1,3,3.71,11.89,11.89,0,0,1,.86,5.39,11.67,11.67,0,0,1-1.41,5.26,8.53,8.53,0,0,1-3.37,3.37A9,9,0,0,1,281.82,788.38Zm.18-3.2a4.6,4.6,0,0,0,3-.8,5.54,5.54,0,0,0,1.86-2.42,10.6,10.6,0,0,0,.36-6.91,5.66,5.66,0,0,0-1.61-2.63,4.52,4.52,0,0,0-2.91-1.11,4.61,4.61,0,0,0-3,.81,5.63,5.63,0,0,0-1.88,2.45,10.26,10.26,0,0,0-.74,3.42,10.37,10.37,0,0,0,.39,3.49,5.66,5.66,0,0,0,1.62,2.6A4.71,4.71,0,0,0,282,785.18Z"/><path class="cls-3" d="M295.24,788.67l1-19.61,3.69.19-.16,3.11h.2a4.75,4.75,0,0,1,2-2.39,5.36,5.36,0,0,1,3.14-.76c.23,0,.51,0,.84.07a6.74,6.74,0,0,1,.77.1l-.18,3.65a11,11,0,0,0-2-.33,4.91,4.91,0,0,0-2.44.45,4.3,4.3,0,0,0-2.47,3.73l-.61,12Z"/><path class="cls-3" d="M309.3,789.63a2.55,2.55,0,0,1-2.42-2.68,2.37,2.37,0,0,1,.84-1.75,2.43,2.43,0,0,1,1.84-.66,2.54,2.54,0,0,1,2,3.94,2.62,2.62,0,0,1-1,.87A2.45,2.45,0,0,1,309.3,789.63Z"/><path class="cls-4" d="M63.25,457.2l18.17,33.74-39.77-2.08Z"/><path class="cls-5" d="M64.42,467.8l-.87,12.4-2.36-.12.43-12.43Zm-2.31,17.52a1.74,1.74,0,0,1-1.19-.56,1.66,1.66,0,0,1-.43-1.24,1.71,1.71,0,0,1,1.79-1.6,1.73,1.73,0,0,1,1.62,1.78,1.7,1.7,0,0,1-.29.85,1.81,1.81,0,0,1-.65.58A1.66,1.66,0,0,1,62.11,485.32Z"/></g></g></svg>