<svg width="15" height="15" viewBox="0 0 15 15" fill="none" xmlns="http://www.w3.org/2000/svg">
<path id="Vector" d="M13.2129 7.5L14.1211 8.63525C14.209 8.74756 14.2773 8.86963 14.3262 9.00146C14.375 9.1333 14.3994 9.27246 14.3994 9.41895C14.3994 9.56543 14.3774 9.70459 14.3335 9.83643C14.2896 9.96826 14.2261 10.0879 14.1431 10.1953C14.0601 10.3027 13.96 10.3955 13.8428 10.4736C13.7256 10.5518 13.5986 10.6104 13.4619 10.6494L12.063 11.0376C12.0728 11.2866 12.085 11.5381 12.0996 11.792C12.1143 12.0459 12.124 12.2998 12.1289 12.5537C12.1289 12.7295 12.0972 12.8931 12.0337 13.0444C11.9702 13.1958 11.8799 13.3276 11.7627 13.4399C11.6455 13.5522 11.5112 13.6426 11.3599 13.7109C11.2085 13.7793 11.0425 13.8135 10.8618 13.8135C10.7104 13.8135 10.5615 13.7866 10.415 13.7329L9.06006 13.2202L8.26172 14.4287C8.14453 14.6094 7.99316 14.7485 7.80762 14.8462C7.62207 14.9438 7.41943 14.9951 7.19971 15C6.98486 15 6.78467 14.9512 6.59912 14.8535C6.41357 14.7559 6.25977 14.6143 6.1377 14.4287L5.33936 13.2202L3.98438 13.7329C3.83789 13.7866 3.68896 13.8135 3.5376 13.8135C3.36182 13.8135 3.19824 13.7817 3.04688 13.7183C2.89551 13.6548 2.76123 13.5645 2.64404 13.4473C2.52686 13.3301 2.43652 13.1958 2.37305 13.0444C2.30957 12.8931 2.27539 12.7295 2.27051 12.5537C2.27051 12.2998 2.27783 12.0459 2.29248 11.792C2.30713 11.5381 2.32178 11.2866 2.33643 11.0376L0.9375 10.6494C0.795898 10.6104 0.668945 10.5518 0.556641 10.4736C0.444336 10.3955 0.34668 10.3027 0.263672 10.1953C0.180664 10.0879 0.117188 9.96826 0.0732422 9.83643C0.0292969 9.70459 0.00488281 9.56543 0 9.41895C0 9.27734 0.0244141 9.14062 0.0732422 9.00879C0.12207 8.87695 0.19043 8.75244 0.27832 8.63525L1.18652 7.5L0.27832 6.36475C0.0927734 6.13525 0 5.87402 0 5.58105C0 5.43457 0.0219727 5.29541 0.065918 5.16357C0.109863 5.03174 0.17334 4.91211 0.256348 4.80469C0.339355 4.69727 0.437012 4.60449 0.549316 4.52637C0.661621 4.44824 0.791016 4.38965 0.9375 4.35059L2.33643 3.9624C2.32666 3.71338 2.31445 3.46191 2.2998 3.20801C2.28516 2.9541 2.27539 2.7002 2.27051 2.44629C2.27051 2.27051 2.30225 2.10693 2.36572 1.95557C2.4292 1.8042 2.51953 1.67236 2.63672 1.56006C2.75391 1.44775 2.88818 1.35742 3.03955 1.28906C3.19092 1.2207 3.35693 1.18652 3.5376 1.18652C3.68896 1.18652 3.83789 1.21338 3.98438 1.26709L5.33936 1.77979L6.1377 0.571289C6.25488 0.390625 6.40625 0.251465 6.5918 0.153809C6.77734 0.0561523 6.97998 0.00488281 7.19971 0C7.41455 0 7.61475 0.0488281 7.80029 0.146484C7.98584 0.244141 8.13965 0.385742 8.26172 0.571289L9.06006 1.77979L10.415 1.26709C10.5615 1.21338 10.7104 1.18652 10.8618 1.18652C11.0376 1.18652 11.2012 1.21826 11.3525 1.28174C11.5039 1.34521 11.6382 1.43555 11.7554 1.55273C11.8726 1.66992 11.9629 1.8042 12.0264 1.95557C12.0898 2.10693 12.124 2.27051 12.1289 2.44629C12.1289 2.7002 12.1216 2.9541 12.1069 3.20801C12.0923 3.46191 12.0776 3.71338 12.063 3.9624L13.4619 4.35059C13.5986 4.38965 13.7256 4.44824 13.8428 4.52637C13.96 4.60449 14.0576 4.69727 14.1357 4.80469C14.2139 4.91211 14.2773 5.03174 14.3262 5.16357C14.375 5.29541 14.3994 5.43457 14.3994 5.58105C14.3994 5.87402 14.3066 6.13525 14.1211 6.36475L13.2129 7.5ZM6.26221 10.2026L10.4297 6.04248L9.59473 5.20752L6.26221 8.54736L4.80469 7.08252L3.96973 7.91748L6.26221 10.2026Z" fill="#3222C6"/>
</svg>
